<svg width="83" height="83" viewBox="0 0 83 83" fill="none" xmlns="http://www.w3.org/2000/svg">
  <circle cx="41.5" cy="41.5" r="41.5" fill="#D9D9D9"/>
  <path d="M41.2601 35.6746C44.6151 35.6746 47.5791 36.4786 49.9874 37.5299C52.2104 38.5194 53.6101 40.7458 53.6101 43.1576V60.24H28.9101V43.1782C28.9101 40.7458 30.3097 38.5194 32.5327 37.5505C34.941 36.4786 37.905 35.6746 41.2601 35.6746ZM24.7934 36.19C27.0576 36.19 28.9101 34.3347 28.9101 32.0671C28.9101 29.7996 27.0576 27.9443 24.7934 27.9443C22.5292 27.9443 20.6767 29.7996 20.6767 32.0671C20.6767 34.3347 22.5292 36.19 24.7934 36.19ZM27.1193 38.4576C26.3577 38.3339 25.5961 38.2514 24.7934 38.2514C22.7556 38.2514 20.8208 38.6843 19.0712 39.4471C17.5481 40.1067 16.5601 41.5909 16.5601 43.2607V60.24H25.8226V43.1782C25.8226 41.4673 26.296 39.8593 27.1193 38.4576ZM57.7267 36.19C59.9909 36.19 61.8434 34.3347 61.8434 32.0671C61.8434 29.7996 59.9909 27.9443 57.7267 27.9443C55.4626 27.9443 53.6101 29.7996 53.6101 32.0671C53.6101 34.3347 55.4626 36.19 57.7267 36.19ZM65.9601 43.2607C65.9601 41.5909 64.9721 40.1067 63.4489 39.4471C61.6993 38.6843 59.7645 38.2514 57.7267 38.2514C56.924 38.2514 56.1624 38.3339 55.4008 38.4576C56.2241 39.8593 56.6976 41.4673 56.6976 43.1782V60.24H65.9601V43.2607ZM41.2601 21.76C44.6769 21.76 47.4351 24.5223 47.4351 27.9443C47.4351 31.3663 44.6769 34.1286 41.2601 34.1286C37.8432 34.1286 35.0851 31.3663 35.0851 27.9443C35.0851 24.5223 37.8432 21.76 41.2601 21.76Z" fill="white"/>
</svg>
