<svg width="83" height="83" viewBox="0 0 83 83" fill="none" xmlns="http://www.w3.org/2000/svg">
  <circle cx="41.5" cy="41.5" r="41.5" fill="#D9D9D9"/>
  <path fill-rule="evenodd" clip-rule="evenodd" d="M57.4177 22.7126H55.35V18.64H51.2148V22.7126H30.5384V18.64H26.4031V22.7126H24.3355C22.0611 22.7126 20.2002 24.5453 20.2002 26.7852V59.3662C20.2002 61.6061 22.0611 63.4388 24.3355 63.4388H57.4177C59.6921 63.4388 61.5529 61.6061 61.5529 59.3662V26.7852C61.5529 24.5453 59.6921 22.7126 57.4177 22.7126ZM47.7685 49.6544H54.6607V56.5466H47.7685V49.6544ZM33.9845 39.3165H27.0924V46.2086H33.9845V39.3165ZM27.0924 49.6544H33.9845V56.5466H27.0924V49.6544ZM44.3228 28.9783H37.4306V35.8704H44.3228V28.9783ZM37.4306 39.3165H44.3228V46.2086H37.4306V39.3165ZM44.3228 49.6544H37.4306V56.5466H44.3228V49.6544ZM47.7685 28.9783H54.6607V35.8704H47.7685V28.9783ZM54.6607 39.3165H47.7685V46.2086H54.6607V39.3165Z" fill="white"/>
</svg>
