<svg width="49" height="48" viewBox="0 0 49 48" fill="none" xmlns="http://www.w3.org/2000/svg">
  <path fill-rule="evenodd" clip-rule="evenodd" d="M39.1908 7.11945H37.2822V3.36011H33.465V7.11945H14.3791V3.36011H10.5619V7.11945H8.65336C6.55391 7.11945 4.83618 8.81115 4.83618 10.8788V40.9535C4.83618 43.0212 6.55391 44.7129 8.65336 44.7129H39.1908C41.2902 44.7129 43.0079 43.0212 43.0079 40.9535V10.8788C43.0079 8.81115 41.2902 7.11945 39.1908 7.11945ZM30.2839 31.9888H36.6458V38.3508H30.2839V31.9888ZM17.5601 22.4461H11.1982V28.8081H17.5601V22.4461ZM11.1982 31.9888H17.5601V38.3508H11.1982V31.9888ZM27.1032 12.9031H20.7412V19.2651H27.1032V12.9031ZM20.7412 22.4461H27.1032V28.8081H20.7412V22.4461ZM27.1032 31.9888H20.7412V38.3508H27.1032V31.9888ZM30.2839 12.9031H36.6458V19.2651H30.2839V12.9031ZM36.6458 22.4461H30.2839V28.8081H36.6458V22.4461Z" fill="white"/>
</svg>
