<svg width="49" height="48" viewBox="0 0 49 48" fill="none" xmlns="http://www.w3.org/2000/svg">
  <path d="M24.2761 19.0843C27.3731 19.0843 30.1091 19.8264 32.3321 20.7968C34.3841 21.7102 35.6761 23.7653 35.6761 25.9916V41.76H12.8761V26.0107C12.8761 23.7653 14.1681 21.7102 16.2201 20.8159C18.4431 19.8264 21.1791 19.0843 24.2761 19.0843ZM9.07607 19.56C11.1661 19.56 12.8761 17.8474 12.8761 15.7543C12.8761 13.6611 11.1661 11.9486 9.07607 11.9486C6.98607 11.9486 5.27607 13.6611 5.27607 15.7543C5.27607 17.8474 6.98607 19.56 9.07607 19.56ZM11.2231 21.6531C10.5201 21.539 9.81707 21.4628 9.07607 21.4628C7.19507 21.4628 5.40907 21.8624 3.79407 22.5665C2.38807 23.1754 1.47607 24.5455 1.47607 26.0868V41.76H10.0261V26.0107C10.0261 24.4313 10.4631 22.9471 11.2231 21.6531ZM39.4761 19.56C41.5661 19.56 43.2761 17.8474 43.2761 15.7543C43.2761 13.6611 41.5661 11.9486 39.4761 11.9486C37.3861 11.9486 35.6761 13.6611 35.6761 15.7543C35.6761 17.8474 37.3861 19.56 39.4761 19.56ZM47.0761 26.0868C47.0761 24.5455 46.1641 23.1754 44.7581 22.5665C43.1431 21.8624 41.3571 21.4628 39.4761 21.4628C38.7351 21.4628 38.0321 21.539 37.3291 21.6531C38.0891 22.9471 38.5261 24.4313 38.5261 26.0107V41.76H47.0761V26.0868ZM24.2761 6.23999C27.4301 6.23999 29.9761 8.78982 29.9761 11.9486C29.9761 15.1073 27.4301 17.6571 24.2761 17.6571C21.1221 17.6571 18.5761 15.1073 18.5761 11.9486C18.5761 8.78982 21.1221 6.23999 24.2761 6.23999Z" fill="white"/>
</svg>
