<svg width="52" height="54" viewBox="0 0 52 54" fill="none" xmlns="http://www.w3.org/2000/svg">
  <path d="M41.7733 6.76001H10.2266C7.72544 6.76001 5.71997 8.76572 5.71997 11.2172V42.4172C5.71997 44.8686 7.72544 46.8743 10.2266 46.8743H19.24L26 53.56L32.76 46.8743H41.7733C44.252 46.8743 46.28 44.8686 46.28 42.4172V11.2172C46.28 8.76572 44.252 6.76001 41.7733 6.76001ZM41.7733 42.4172H30.8897L29.5602 43.732L26 47.2532L22.4172 43.7097L21.1102 42.4172H10.2266V11.2172H41.7733V42.4172ZM23.7466 35.7314H28.2533V40.1886H23.7466V35.7314ZM26 17.9029C28.4786 17.9029 30.5066 19.9086 30.5066 22.36C30.5066 26.8172 23.7466 26.26 23.7466 33.5029H28.2533C28.2533 28.4886 35.0133 27.9314 35.0133 22.36C35.0133 17.4349 30.9798 13.4457 26 13.4457C21.0201 13.4457 16.9866 17.4349 16.9866 22.36H21.4933C21.4933 19.9086 23.5213 17.9029 26 17.9029Z" fill="white"/>
</svg>
