<svg width="52" height="52" viewBox="0 0 52 52" fill="none" xmlns="http://www.w3.org/2000/svg">
  <path d="M45.9964 8.3965C43.5301 7.61497 40.8195 7.28003 38.22 7.28003C33.8874 7.28003 29.2216 8.17321 26 10.6294C22.7784 8.17321 18.1125 7.28003 13.78 7.28003C9.44745 7.28003 4.78163 8.17321 1.56 10.6294V43.342C1.56 43.9003 2.11545 44.4585 2.67091 44.4585C2.89309 44.4585 3.00418 44.3469 3.22636 44.3469C6.22582 42.8954 10.5584 41.8906 13.78 41.8906C18.1125 41.8906 22.7784 42.7838 26 45.24C28.9994 43.342 34.4429 41.8906 38.22 41.8906C41.886 41.8906 45.6631 42.5605 48.7736 44.2352C48.9958 44.3469 49.1069 44.3469 49.3291 44.3469C49.8845 44.3469 50.44 43.7886 50.44 43.2304V10.6294C49.1069 9.62462 47.6627 8.95474 45.9964 8.3965ZM45.9964 38.5412C43.5524 37.7597 40.8862 37.4247 38.22 37.4247C34.4429 37.4247 28.9994 38.8761 26 40.7741V15.0953C28.9994 13.1973 34.4429 11.7459 38.22 11.7459C40.8862 11.7459 43.5524 12.0809 45.9964 12.8624V38.5412Z" fill="white"/>
</svg>
