<svg width="52" height="52" viewBox="0 0 52 52" fill="none" xmlns="http://www.w3.org/2000/svg">
  <path fill-rule="evenodd" clip-rule="evenodd" d="M45.9813 3.25H5.53699C2.75644 3.25 0.481445 5.52499 0.481445 8.30554V43.6944C0.481445 46.4749 2.75644 48.7499 5.53699 48.7499H45.9813C48.7619 48.7499 51.0369 46.4749 51.0369 43.6944V8.30554C51.0369 5.52499 48.7619 3.25 45.9813 3.25ZM45.9813 43.6944H5.53699V8.30554H45.9813V43.6944Z" fill="white"/>
  <path fill-rule="evenodd" clip-rule="evenodd" d="M44.4901 22.0062L40.9006 18.4167L32.8876 26.4298L29.3234 22.8403L25.7593 26.4045L32.8876 33.5834L44.4901 22.0062Z" fill="white"/>
  <path d="M20.7037 13.3612H8.06482V18.4167H20.7037V13.3612Z" fill="white"/>
  <path d="M20.7037 23.472H8.06482V28.5276H20.7037V23.472Z" fill="white"/>
  <path d="M20.7037 33.5833H8.06482V38.6388H20.7037V33.5833Z" fill="white"/>
</svg>
