<svg width="52" height="52" viewBox="0 0 52 52" fill="none" xmlns="http://www.w3.org/2000/svg">
  <path d="M50.713 18.0937L48.0914 6.98417C47.5421 4.69617 45.5946 3.12 43.3225 3.12H8.64187C6.39474 3.12 4.42227 4.72159 3.89794 6.98417L1.27629 18.0937C0.677062 20.6868 1.22636 23.3307 2.82431 25.4153C3.02406 25.6949 3.29871 25.8983 3.52342 26.1525V43.7955C3.52342 46.592 5.77054 48.88 8.51702 48.88H43.4723C46.2188 48.88 48.4659 46.592 48.4659 43.7955V26.1525C48.6906 25.9237 48.9652 25.6949 49.165 25.4407C50.7629 23.3561 51.3372 20.6868 50.713 18.0937ZM43.2476 8.17902L45.8692 19.2885C46.1189 20.3563 45.8942 21.424 45.245 22.2629C44.8954 22.7205 44.1464 23.4578 42.898 23.4578C41.375 23.4578 40.0516 22.2121 39.8769 20.5596L38.4287 8.20444L43.2476 8.17902ZM28.4915 8.20444H33.3852L34.7335 19.6953C34.8583 20.6868 34.5587 21.6782 33.9095 22.4155C33.3602 23.0764 32.5612 23.4578 31.5376 23.4578C29.8647 23.4578 28.4915 21.9579 28.4915 20.1275V8.20444ZM17.2309 19.6953L18.6041 8.20444H23.4978V20.1275C23.4978 21.9579 22.1246 23.4578 20.277 23.4578C19.4281 23.4578 18.654 23.0764 18.0548 22.4155C17.4306 21.6782 17.131 20.6868 17.2309 19.6953ZM6.12009 19.2885L8.64187 8.20444H13.5606L12.1124 20.5596C11.9127 22.2121 10.6143 23.4578 9.09129 23.4578C7.86786 23.4578 7.09385 22.7205 6.76926 22.2629C6.09513 21.4494 5.87041 20.3563 6.12009 19.2885ZM8.51702 43.7955V28.466C8.71677 28.4914 8.89154 28.5422 9.09129 28.5422C11.2635 28.5422 13.236 27.627 14.6841 26.1271C16.1822 27.6524 18.1797 28.5422 20.4517 28.5422C22.624 28.5422 24.5715 27.627 26.0196 26.1779C27.4927 27.627 29.4902 28.5422 31.7373 28.5422C33.8346 28.5422 35.8321 27.6524 37.3301 26.1271C38.7783 27.627 40.7508 28.5422 42.923 28.5422C43.1227 28.5422 43.2975 28.4914 43.4972 28.466V43.7955H8.51702Z" fill="white"/>
</svg>
