<svg width="26" height="40" viewBox="0 0 26 40" fill="none" xmlns="http://www.w3.org/2000/svg">
  <path d="M13 39.978C13 39.9853 12.9852 40 12.9852 40C12.9852 40 -1.23621e-07 20.2315 -1.23621e-07 13.7351C-1.23621e-07 4.17417 6.58153 0.0146978 13 0C19.4185 0.0146978 26 4.17417 26 13.7351C26 20.2315 13.0074 40 13.0074 40L13 39.978ZM17.4989 13.1913C17.4989 10.722 15.4829 8.72313 12.9926 8.72313C10.5023 8.72313 8.48632 10.722 8.48632 13.1913C8.48632 15.6605 10.5097 17.6594 13 17.6594C15.4829 17.6594 17.4989 15.6605 17.4989 13.1913Z" fill="#5FA93D"/>
  <path d="M12.9926 8.72313C15.4829 8.72313 17.4989 10.722 17.4989 13.1913C17.4989 15.6605 15.4829 17.6594 13 17.6594C10.5097 17.6594 8.48632 15.6605 8.48632 13.1913C8.48632 10.722 10.5023 8.72313 12.9926 8.72313Z" fill="#5FA93D"/>
  <circle cx="13" cy="13" r="11" fill="#5FA93D"/>
  <path fill-rule="evenodd" clip-rule="evenodd" d="M7.375 20.4468C5.84732 19.406 4.65653 17.9074 4 16.1484V15.8227C4 15.2152 4.36 14.6752 4.915 14.4352C5.5525 14.1577 6.2575 14.0002 7 14.0002C7.2925 14.0002 7.57 14.0302 7.8475 14.0752C7.5475 14.5852 7.375 15.1702 7.375 15.7927V20.4468ZM8.5 21.0996V15.7927C8.5 14.9077 9.01 14.0977 9.82 13.7452C10.6975 13.3552 11.7775 13.0627 13 13.0627C14.2225 13.0627 15.3025 13.3552 16.18 13.7377C16.99 14.0977 17.5 14.9077 17.5 15.7852V20.4482C16.1286 21.382 14.486 21.9469 12.7147 22.0002H12.1623C10.8519 21.9608 9.61185 21.6413 8.5 21.0996ZM21.309 14.5548C20.9696 16.5045 20.0032 18.239 18.625 19.5426V15.7927C18.625 15.1702 18.4525 14.5852 18.1525 14.0752C18.43 14.0302 18.7075 14.0002 19 14.0002C19.7425 14.0002 20.4475 14.1577 21.085 14.4352C21.1637 14.4693 21.2385 14.5094 21.309 14.5548ZM8.5 11.7502C8.5 12.5752 7.825 13.2502 7 13.2502C6.175 13.2502 5.5 12.5752 5.5 11.7502C5.5 10.9252 6.175 10.2502 7 10.2502C7.825 10.2502 8.5 10.9252 8.5 11.7502ZM20.5 11.7502C20.5 12.5752 19.825 13.2502 19 13.2502C18.175 13.2502 17.5 12.5752 17.5 11.7502C17.5 10.9252 18.175 10.2502 19 10.2502C19.825 10.2502 20.5 10.9252 20.5 11.7502ZM15.25 10.2502C15.25 9.00524 14.245 8.00024 13 8.00024C11.755 8.00024 10.75 9.00524 10.75 10.2502C10.75 11.4952 11.755 12.5002 13 12.5002C14.245 12.5002 15.25 11.4952 15.25 10.2502Z" fill="white"/>
</svg>
