<svg width="33" height="50" viewBox="0 0 33 50" fill="none" xmlns="http://www.w3.org/2000/svg">
  <path d="M16.25 49.9724C16.25 49.9816 16.2315 50 16.2315 50C16.2315 50 -1.54527e-07 25.2894 -1.54527e-07 17.1688C-1.54527e-07 5.21771 8.22692 0.0183722 16.25 0C24.2731 0.0183722 32.5 5.21771 32.5 17.1688C32.5 25.2894 16.2593 50 16.2593 50L16.25 49.9724ZM21.8736 16.4891C21.8736 13.4025 19.3536 10.9039 16.2407 10.9039C13.1279 10.9039 10.6079 13.4025 10.6079 16.4891C10.6079 19.5756 13.1371 22.0742 16.25 22.0742C19.3536 22.0742 21.8736 19.5756 21.8736 16.4891Z" fill="#5FA93D"/>
  <path d="M16.2407 10.9039C19.3536 10.9039 21.8736 13.4025 21.8736 16.4891C21.8736 19.5756 19.3536 22.0742 16.25 22.0742C13.1371 22.0742 10.6079 19.5756 10.6079 16.4891C10.6079 13.4025 13.1279 10.9039 16.2407 10.9039Z" fill="#5FA93D"/>
  <circle cx="15.75" cy="16.25" r="13.75" fill="#5FA93D"/>
  <path fill-rule="evenodd" clip-rule="evenodd" d="M9.21875 25.5585C7.30915 24.2575 5.82066 22.3842 5 20.1854V19.7784C5 19.019 5.45 18.344 6.14375 18.044C6.94063 17.6971 7.82188 17.5002 8.75 17.5002C9.11562 17.5002 9.4625 17.5377 9.80938 17.594C9.43438 18.2315 9.21875 18.9627 9.21875 19.7409V25.5585ZM10.625 26.3745V19.7409C10.625 18.6346 11.2625 17.6221 12.275 17.1815C13.3719 16.694 14.7219 16.3284 16.25 16.3284C17.7781 16.3284 19.1281 16.694 20.225 17.1721C21.2375 17.6221 21.875 18.6346 21.875 19.7315V25.5602C20.1608 26.7274 18.1075 27.4335 15.8934 27.5002H15.2028C13.5648 27.4509 12.0148 27.0516 10.625 26.3745ZM26.6362 18.1935C26.212 20.6306 25.004 22.7986 23.2812 24.4282V19.7409C23.2812 18.9627 23.0656 18.2315 22.6906 17.594C23.0375 17.5377 23.3844 17.5002 23.75 17.5002C24.6781 17.5002 25.5594 17.6971 26.3563 18.044C26.4547 18.0866 26.5482 18.1367 26.6362 18.1935ZM10.625 14.6877C10.625 15.719 9.78125 16.5627 8.75 16.5627C7.71875 16.5627 6.875 15.719 6.875 14.6877C6.875 13.6565 7.71875 12.8127 8.75 12.8127C9.78125 12.8127 10.625 13.6565 10.625 14.6877ZM25.625 14.6877C25.625 15.719 24.7812 16.5627 23.75 16.5627C22.7188 16.5627 21.875 15.719 21.875 14.6877C21.875 13.6565 22.7188 12.8127 23.75 12.8127C24.7812 12.8127 25.625 13.6565 25.625 14.6877ZM19.0625 12.8127C19.0625 11.2565 17.8062 10.0002 16.25 10.0002C14.6938 10.0002 13.4375 11.2565 13.4375 12.8127C13.4375 14.369 14.6938 15.6252 16.25 15.6252C17.8062 15.6252 19.0625 14.369 19.0625 12.8127Z" fill="white"/>
</svg>
